<svg width="17" height="24" viewBox="0 0 17 24" xmlns="http://www.w3.org/2000/svg"><title>C1FFA470-73D5-45E2-8139-D9148F8FE04F</title><g fill="none" fill-rule="evenodd"><path d="M13.937 10.408a7.442 7.442 0 0 1 2.175 5.252c0 4.175-3.471 7.56-7.753 7.56S.606 19.837.606 15.66c0-1.77.624-3.399 1.67-4.687" stroke="#ED1B34" stroke-width="1.2" stroke-linecap="round" stroke-linejoin="round"/><path d="M10.791 15.66c0 1.31-1.088 2.372-2.432 2.372-1.343 0-2.432-1.062-2.432-2.372 0-1.31 1.089-2.372 2.432-2.372s2.432 1.062 2.432 2.372" fill="#ED1B34"/><path d="M5.887.792s-1.98 1.11-1.42 2.694c.346.982 1.34 1.289 1.326 2.654-.017 1.524-1.327 2.423-1.327 2.423M9.555.792s-1.98 1.11-1.42 2.694c.346.982 1.34 1.289 1.326 2.654-.017 1.524-1.327 2.423-1.327 2.423M13.223.792s-1.98 1.11-1.42 2.694c.346.982 1.341 1.289 1.326 2.654-.017 1.524-1.326 2.423-1.326 2.423" stroke="#ED1B34" stroke-width="1.2" stroke-linecap="round" stroke-linejoin="round"/></g></svg>