<svg width="201" height="200" viewBox="0 0 201 200" xmlns="http://www.w3.org/2000/svg"><title>213A18C0-E3C7-4D75-BC16-E6E306C6758A</title><g fill="none"><path d="M114.932 37.688s10.866-16.732 34.27-14.64v4.6s-14.627-3.346-34.27 10.04z" fill="#FFD15C"/><path d="M109.916 16.773S120.783-.797 143.351.04v4.602c.418 0-13.374-3.346-33.435 12.13z" fill="#84DBFF"/><path d="M85.677 37.688S74.81 20.956 51.406 23.048v4.6s14.627-3.346 34.27 10.04z" fill="#FFD15C"/><path d="M90.274 15.936S78.989-1.214 56.003.46v4.6s13.792-3.764 34.27 10.876zm56.421 28.026h-4.597l3.343-3.346c.418-.418.418-.836 0-1.255-.418-.418-.836-.418-1.254 0l-3.343 3.346v-4.183c0-.418-.418-.836-.836-.836s-.836.418-.836.836v4.601l-3.343-3.346c-.418-.418-.836-.418-1.254 0-.418.419-.418.837 0 1.255l3.343 3.346h-4.18c-.417 0-.835.419-.835.837s.418.418.836.418h4.597l-3.344 3.347c-.418.418-.418.836 0 1.254l.419.419s.418 0 .418-.419l3.343-3.346v4.601c0 .419.418.837.836.837s.835-.419.835-.837v-4.6l3.344 3.345.418.419s.418 0 .418-.419c.418-.418.418-.836 0-1.254l-2.926-3.347h4.598c.418 0 .835-.418.835-.836s-.417-.837-.835-.837z" fill="#84DBFF"/><path d="M72.302 59.858h-4.597l3.344-3.347c.418-.418.418-.836 0-1.255-.418-.418-.836-.418-1.254 0l-2.926 3.765V54.42c0-.419-.418-.837-.836-.837-.417 0-.835.419-.835.837v4.6l-3.344-3.345c-.418-.419-.835-.419-1.253 0-.419.418-.419.836 0 1.254l3.343 3.347h-4.597c-.418 0-.836.418-.836.836 0 .419.418.837.836.837h4.597L60.6 65.295c-.419.418-.419.836 0 1.255l.418.418s.418 0 .418-.418l3.343-3.346v4.6c0 .42.418.837.836.837s.835-.418.835-.836v-4.601l3.344 3.346.418.419s.418 0 .418-.419c.418-.418.418-.836 0-1.255l-3.343-3.346h4.597c.418 0 .835-.418.835-.836s0-1.255-.418-1.255z" fill="#FFD15C"/><path d="M164.248 45.217v5.02l3.761 2.51-4.597 1.673-1.254 4.601-2.925-3.765h-5.015l2.925-3.764-1.672-4.602 4.597 1.255zM39.704 23.047v4.602l4.179 2.927-4.597 1.674-1.672 4.601-2.926-4.183-4.597.418 2.926-4.182-1.672-4.602 4.597 1.673z" fill="#FF7058"/><path d="M128.723 59.021v3.346l2.508 1.674-2.925.836-.836 3.347-2.09-2.51h-2.926l1.672-2.51-.835-2.928 2.925.837zM64.78 36.015v3.346l2.507 1.673-2.925.837-.836 2.928-1.672-2.51h-3.343l2.09-2.51-1.254-2.928 2.925 1.255z" fill="#84DBFF"/><path d="M192.667 199.988H7.941c-4.18 0-7.941-3.346-7.941-7.947 0-4.183 3.343-7.948 7.94-7.948h184.728c4.18 0 7.94 3.346 7.94 7.948 0 4.601-3.343 7.947-7.94 7.947z" fill="#CFF1FF"/><path fill="#FFD15C" d="M12.12 140.171h176.368v24.68H12.12z"/><path fill="#FF7058" d="M12.12 164.851h176.368v19.66H12.12z"/><path d="M174.278 120.511H26.33V89.14c0-4.601 3.761-8.366 8.358-8.366H165.92c4.598 0 8.359 3.765 8.359 8.366v31.372z" fill="#FFD15C"/><path d="M188.488 140.171H12.12v-11.294c0-4.6 3.761-8.366 8.358-8.366H180.13c4.597 0 8.359 3.765 8.359 8.366v11.294zM165.92 80.773H34.688c-4.597 0-8.358 3.764-8.358 8.365v17.15c10.03 0 19.225-3.346 26.33-10.457 6.269-5.856 15.881-6.693 21.732-.418 10.866 10.875 27.166 14.222 43.048 7.11 3.343-1.673 6.269-4.183 8.776-6.692 7.523-7.53 20.897-5.856 25.494 5.438 3.762 9.202 15.464 12.549 22.569 5.02V89.137c0-4.6-3.762-8.365-8.36-8.365z" fill="#FF7058"/><path d="M109.499 81.191h-18.39V50.655c0-2.51 1.673-4.183 4.18-4.183h10.03c2.508 0 4.18 1.673 4.18 4.183V81.19z" fill="#CDD6E0"/><path d="M108.245 33.923c0 4.601-3.761 7.948-7.94 7.948-4.18 0-7.942-3.765-7.942-7.948s1.672-4.183 7.941-14.64c2.508-3.765 7.941 6.692 7.941 14.64z" fill="#FFD15C"/></g></svg>