<svg width="26" height="26" viewBox="0 0 26 26" xmlns="http://www.w3.org/2000/svg"><title>EC02A909-7657-4B4B-93F2-B6F008A780CE</title><g fill="none" fill-rule="evenodd"><path d="M24.84 16.36v1.337a6.89 6.89 0 0 1-1.957 4.81 7.175 7.175 0 0 1-5.17 2.176H8.127C4.19 24.683 1 21.555 1 17.697V16.36" stroke="#ED1B34" stroke-width="1.2" stroke-linecap="round" stroke-linejoin="round"/><path d="M18.599 20.955c1.236 0 2.238-1.028 2.238-2.297 0-1.27-1.002-2.298-2.238-2.298-1.237 0-2.239 1.029-2.239 2.298 0 1.269 1.002 2.297 2.239 2.297zm-5.76 0c1.236 0 2.238-1.028 2.238-2.297 0-1.27-1.002-2.298-2.238-2.298-1.237 0-2.239 1.029-2.239 2.298 0 1.269 1.002 2.297 2.239 2.297zm-5.76 0c1.236 0 2.238-1.028 2.238-2.297 0-1.27-1.002-2.298-2.238-2.298-1.237 0-2.239 1.029-2.239 2.298 0 1.269 1.002 2.297 2.239 2.297z" fill="#ED1B34"/><path d="M8.15 1.486S5.27 3.11 6.083 5.424c.505 1.435 1.952 1.884 1.93 3.88-.024 2.228-1.93 3.542-1.93 3.542m7.403-11.36s-2.88 1.623-2.066 3.938c.503 1.435 1.95 1.884 1.929 3.88-.024 2.228-1.93 3.542-1.93 3.542m7.402-11.36s-2.88 1.623-2.066 3.938c.504 1.435 1.951 1.884 1.93 3.88-.025 2.228-1.93 3.542-1.93 3.542" stroke="#ED1B34" stroke-linecap="round" stroke-linejoin="round" stroke-width="1.2"/></g></svg>