<?xml version="1.0" encoding="UTF-8"?>
<svg width="26px" height="20px" viewBox="0 0 26 20" version="1.1" xmlns="http://www.w3.org/2000/svg" xmlns:xlink="http://www.w3.org/1999/xlink">
    <!-- Generator: sketchtool 46.2 (44496) - http://www.bohemiancoding.com/sketch -->
    <title>836FA2C0-6A14-4523-BB87-E3A62061E838</title>
    <desc>Created with sketchtool.</desc>
    <defs>
        <rect id="path-1" x="0" y="0" width="15" height="20" rx="6"></rect>
    </defs>
    <g id="Page-1" stroke="none" stroke-width="1" fill="none" fill-rule="evenodd">
        <g id="Sidemenu_v2_Mobile" transform="translate(-229.000000, -21.000000)">
            <g id="Group-4" transform="translate(187.000000, 15.000000)">
                <g id="gray" transform="translate(42.000000, 6.000000)">
                    <g id="Group" transform="translate(11.000000, 0.000000)">
                        <g id="Clipped">
                            <mask id="mask-2" fill="white">
                                <use xlink:href="#path-1"></use>
                            </mask>
                            <g id="a"></g>
                            <g id="Group" mask="url(#mask-2)" stroke="#999999" stroke-width="3">
                                <rect id="Rectangle-path" x="0" y="0" width="15" height="20" rx="6"></rect>
                            </g>
                        </g>
                    </g>
                    <path d="M1.583,5.388 L5.273,7.983 C9.575,4.199 15.32,4.328 19.53,8.393 L20.842,9.66 C21.1484205,9.95615244 21.1578077,10.4442855 20.863,10.752 L19.576,12.085 C15.553,16.251 9.79,16.584 5.371,12.96 L1.784,15.667 C1.501,15.955 0.464,15.882 0.594,14.945 L1.272,10.558 L0.422,6.198 C0.372,5.661 0.756,4.975 1.583,5.388 L1.583,5.388 Z" id="Shape" fill="#999999" fill-rule="nonzero"></path>
                </g>
            </g>
        </g>
    </g>
</svg>