<svg width="18" height="16" viewBox="0 0 18 16" xmlns="http://www.w3.org/2000/svg"><title>D3BF9DFA-CD7D-42E1-B99D-B880EB19CFB4</title><path d="M15.949 5.993a2.67 2.67 0 0 0 .13-.824c0-1.492-1.23-2.706-2.74-2.706l-.096.001a2.768 2.768 0 0 0-2.239-1.145 2.77 2.77 0 0 0-2.239 1.145 2.765 2.765 0 0 0-1.858.633V1.005H6.57c-1.33 0-2.45.9-2.77 2.115l-.803-.791-.238.235a2.804 2.804 0 0 0-.445 3.43h-.981A.333.333 0 0 0 1 6.325c0 2.851 1.547 5.465 4.05 6.87v1.132c0 .368.3.667.668.667h6.564a.667.667 0 0 0 .667-.667v-1.132C15.453 11.79 17 9.177 17 6.326a.333.333 0 0 0-.333-.333h-.718zm-7.28-2.865c.075 0 .153.004.232.013l.216.024.11-.184a2.085 2.085 0 0 1 1.777-.997c.724 0 1.405.382 1.776.997l.111.184.216-.024a2.05 2.05 0 0 1 .231-.013c1.14 0 2.068.915 2.068 2.04 0 .286-.06.567-.176.825h-2.352l1.014-1.001a.33.33 0 0 0 0-.47.339.339 0 0 0-.476 0l-1.491 1.471h-.584V3.508a.337.337 0 1 0-.674 0v2.485h-.584L8.592 4.522a.339.339 0 0 0-.477 0 .33.33 0 0 0 0 .47L9.13 5.993H6.907V4.102a2.078 2.078 0 0 1 1.763-.974zM6.234 1.696v3.827L4.385 3.7a2.176 2.176 0 0 1 1.848-2.003zM3.016 3.287l2.74 2.706H3.144a2.144 2.144 0 0 1-.127-2.706zM5.725 14.33v-.997h6.55v.997h-6.55zm6.801-1.662H5.474A7.218 7.218 0 0 1 1.681 6.66H16.32c-.117 2.514-1.545 4.787-3.793 6.008z" fill="#E40327" stroke="#E40327" stroke-width=".2"/></svg>