<?xml version="1.0" encoding="UTF-8"?>
<svg width="29px" height="29px" viewBox="0 0 29 29" version="1.1" xmlns="http://www.w3.org/2000/svg" xmlns:xlink="http://www.w3.org/1999/xlink">
    <!-- Generator: sketchtool 46.1 (44463) - http://www.bohemiancoding.com/sketch -->
    <title>100AD284-59E5-4A3D-9CDD-B7D559217924</title>
    <desc>Created with sketchtool.</desc>
    <defs></defs>
    <g id="Page-1" stroke="none" stroke-width="1" fill="none" fill-rule="evenodd">
        <g id="Sidemenu_v2_Mobile" transform="translate(-97.000000, -555.000000)" fill="#C7C7CD">
            <g id="Соцсети" transform="translate(47.000000, 555.000000)">
                <g id="Facebook_w_x2F__circle" transform="translate(49.732326, 0.000000)">
                    <path d="M14.4851434,0.58 C6.80512039,0.58 0.579405738,6.8121 0.579405738,14.5 C0.579405738,22.1879 6.80512039,28.42 14.4851434,28.42 C22.1651665,28.42 28.3908811,22.1879 28.3908811,14.5 C28.3908811,6.8121 22.1651665,0.58 14.4851434,0.58 L14.4851434,0.58 Z M17.7790651,10.1993 L15.6888589,10.1993 C15.4411629,10.1993 15.1659452,10.52555 15.1659452,10.9591 L15.1659452,12.47 L17.7805136,12.47 L17.3850692,14.6247 L15.1659452,14.6247 L15.1659452,21.09315 L12.6991253,21.09315 L12.6991253,14.6247 L10.4611706,14.6247 L10.4611706,12.47 L12.6991253,12.47 L12.6991253,11.2027 C12.6991253,9.3844 13.9593327,7.90685 15.6888589,7.90685 L17.7790651,7.90685 L17.7790651,10.1993 L17.7790651,10.1993 Z" id="Shape"></path>
                </g>
            </g>
        </g>
    </g>
</svg>