<?xml version="1.0" encoding="UTF-8"?>
<svg width="18px" height="18px" viewBox="0 0 18 18" version="1.1" xmlns="http://www.w3.org/2000/svg" xmlns:xlink="http://www.w3.org/1999/xlink">
    <!-- Generator: sketchtool 46.1 (44463) - http://www.bohemiancoding.com/sketch -->
    <title>CC862683-3EB0-4D27-8F3B-CBD771F01709</title>
    <desc>Created with sketchtool.</desc>
    <defs></defs>
    <g id="Page-1" stroke="none" stroke-width="1" fill="none" fill-rule="evenodd" stroke-linecap="round" stroke-linejoin="round">
        <g id="Sidemenu_v2_Mobile" transform="translate(-17.000000, -294.000000)" stroke="#E40327">
            <g id="Обратная-связь-Copy-2" transform="translate(18.000000, 295.000000)">
                <g id="Group-6">
                    <path d="M9.01347513,12.1185575 C9.01347513,12.1185575 7.24405654,11.3181602 5.90690674,9.98101043 C4.56975694,8.64386063 3.85486156,6.95994392 3.85486156,6.95994392 L5.62190046,5.22140564 C5.62190046,5.22140564 5.82855731,4.87184529 5.84990548,4.53739058 C5.87125365,4.20293587 5.70740234,3.88187615 5.70740234,3.88187615 L3.37035089,1.5448247 C3.37035089,1.5448247 3.08153765,1.32430338 2.71483646,1.31681968 C2.34813527,1.30933598 1.97382015,1.51632407 1.97382015,1.51632407 L0.349284381,3.11235921 C0.349284381,3.11235921 0.116276805,3.51865705 0.0357774782,4.05287986 C-0.0447218484,4.58710266 0.0357774794,5.19290501 0.0357774794,5.19290501 C0.0357774794,5.19290501 0.520288172,8.41347608 3.68385787,11.7195489 C6.84742758,15.0256216 10.2105015,15.8236391 10.2105015,15.8236391 C10.2105015,15.8236391 11.4272235,16.044759 11.97754,15.9661424 C12.5278565,15.8875257 13.003563,15.4246303 13.003563,15.4246303 L14.4000937,14.0280995 C14.4000937,14.0280995 14.6700061,13.7633308 14.6850996,13.4010859 C14.7001932,13.038841 14.457095,12.6600694 14.457095,12.6600694 L12.234046,10.4370205 C12.234046,10.4370205 11.9097805,10.0880973 11.550031,10.0665123 C11.1902815,10.0449273 10.8090147,10.3515186 10.8090147,10.3515186 L9.01347513,12.1185575 Z" id="Path-1"></path>
                    <path d="M8.27245882,3.25486235 C8.27245882,3.25486235 10.4590662,3.48968369 11.5785316,4.65139309 C12.697997,5.81310249 12.8040586,7.95746588 12.8040586,7.95746588" id="Path-2"></path>
                    <path d="M8.38646133,0.0342914428 C8.38646133,0.0342914428 11.8350372,0.119793325 13.8870824,2.51384603 C15.9391276,4.90789874 15.9391276,7.81496274 15.9391276,7.81496274" id="Path-3"></path>
                </g>
            </g>
        </g>
    </g>
</svg>