<?xml version="1.0" encoding="UTF-8"?>
<svg width="29px" height="29px" viewBox="0 0 29 29" version="1.1" xmlns="http://www.w3.org/2000/svg" xmlns:xlink="http://www.w3.org/1999/xlink">
    <!-- Generator: sketchtool 46.1 (44463) - http://www.bohemiancoding.com/sketch -->
    <title>3262CC84-A5E8-444E-AC01-2A2B54138296</title>
    <desc>Created with sketchtool.</desc>
    <defs></defs>
    <g id="Page-1" stroke="none" stroke-width="1" fill="none" fill-rule="evenodd">
        <g id="Sidemenu_v2_Mobile" transform="translate(-47.000000, -555.000000)" fill="#C7C7CD">
            <g id="Соцсети" transform="translate(47.000000, 555.000000)">
                <g id="VK_w_x2F__circle">
                    <path d="M14.4851434,0.58 C6.80512039,0.58 0.579405738,6.8121 0.579405738,14.5 C0.579405738,22.1879 6.80512039,28.42 14.4851434,28.42 C22.1651665,28.42 28.3908811,22.1879 28.3908811,14.5 C28.3908811,6.8121 22.1651665,0.58 14.4851434,0.58 L14.4851434,0.58 Z M19.8330584,16.28495 C19.8330584,16.28495 21.0628471,17.50005 21.3655866,18.0641 C21.3742777,18.0757 21.3786232,18.0873 21.3815202,18.0931 C21.504644,18.30045 21.5336142,18.4614 21.4727766,18.58175 C21.3713806,18.78185 21.0237372,18.88045 20.904959,18.88915 L18.7321875,18.88915 C18.581542,18.88915 18.2657659,18.85 17.8833581,18.5861 C17.5893097,18.3802 17.2996068,18.04235 17.0171465,17.7132 C16.5956288,17.2231 16.2306032,16.7997 15.8626806,16.7997 C15.8163281,16.7997 15.7685272,16.80695 15.7250717,16.82145 C15.446957,16.91135 15.0906224,17.30865 15.0906224,18.36715 C15.0906224,18.69775 14.8298899,18.8877 14.6459285,18.8877 L13.6507992,18.8877 C13.3118468,18.8877 11.5461078,18.7688 9.98171235,17.11725 C8.06677638,15.0945 6.34304431,11.0374 6.32855917,10.9997 C6.21992059,10.73725 6.44444032,10.5966 6.68923924,10.5966 L8.88373847,10.5966 C9.17633837,10.5966 9.27194032,10.77495 9.33857198,10.933 C9.41679175,11.11715 9.70359759,11.8494 10.1743648,12.673 C10.9377318,14.0157 11.4056019,14.5609 11.7807672,14.5609 C11.8517444,14.5609 11.9169275,14.54205 11.9821107,14.5087 C12.4717085,14.2361 12.3804521,12.48885 12.3587244,12.12635 C12.3587244,12.0582 12.3572759,11.3448 12.1066829,11.0026 C11.9270671,10.75465 11.6214306,10.6604 11.4360207,10.6256 C11.4838217,10.55455 11.5910118,10.4458 11.7242751,10.38055 C12.0603304,10.21235 12.6658094,10.1877 13.2669429,10.1877 L13.6015497,10.1877 C14.2533811,10.1964 14.4214088,10.23845 14.6575166,10.2979 C15.1355264,10.41245 15.145666,10.7213 15.1036591,11.77835 C15.0906224,12.0785 15.0775858,12.4178 15.0775858,12.818 C15.0775858,12.905 15.0732403,12.9978 15.0732403,13.0964 C15.0587551,13.63435 15.041373,14.2448 15.4208837,14.49565 C15.4701332,14.5261 15.5266253,14.5435 15.5860143,14.5435 C15.7178291,14.5435 16.1147221,14.5435 17.1895197,12.69765 C17.6602869,11.88275 18.0253125,10.9214 18.0513858,10.85035 C18.0731135,10.81265 18.1368481,10.69665 18.2121709,10.6517 C18.2715599,10.6169 18.3512282,10.60965 18.3917866,10.60965 L20.9715907,10.60965 C21.2526025,10.60965 21.4452549,10.6517 21.4814677,10.76045 C21.5452024,10.933 21.4698796,11.45935 20.2922374,13.0558 C20.093791,13.3197 19.9185207,13.55025 19.7664267,13.75035 C18.6988717,15.15105 18.6988717,15.2221 19.8330584,16.28495 L19.8330584,16.28495 Z" id="Shape"></path>
                </g>
            </g>
        </g>
    </g>
</svg>