<?xml version="1.0" encoding="UTF-8"?>
<svg width="13px" height="18px" viewBox="0 0 13 18" version="1.1" xmlns="http://www.w3.org/2000/svg" xmlns:xlink="http://www.w3.org/1999/xlink">
    <!-- Generator: sketchtool 46.1 (44463) - http://www.bohemiancoding.com/sketch -->
    <title>70E8BB6D-003D-4A0B-AC04-AB50572B0300</title>
    <desc>Created with sketchtool.</desc>
    <defs></defs>
    <g id="Page-1" stroke="none" stroke-width="1" fill="none" fill-rule="evenodd">
        <g id="Sidemenu_v2_Mobile" transform="translate(-19.000000, -107.000000)" stroke="#E40327">
            <g id="История-заказов" transform="translate(19.000000, 108.000000)">
                <g id="Адреса">
                    <path d="M6.10918017,14.2281285 L8.87470135,14.2281285 C8.87470135,14.2281285 11.0871183,14.0509413 11.0871185,11.5703212 C11.0871187,9.089701 8.87470135,8.73532669 8.87470135,8.73532669 L3.34365899,8.91251384 C3.34365899,8.91251384 0.807008675,8.55813953 0.762505889,6.25470653 C0.718003104,3.95127353 3.15929091,3.41971207 3.15929091,3.41971207 L5.74044401,3.41971207" id="Path-1" stroke-linecap="round" stroke-linejoin="round"></path>
                    <ellipse id="Oval-1" cx="2.39738615" cy="14.4053156" rx="1.65931271" ry="1.59468439"></ellipse>
                    <path d="M10.0053423,5.66998893 C10.0053423,5.66998893 12.2177592,3.300539 12.2177592,2.12624585 C12.2177592,0.951952691 11.2272264,0 10.0053423,0 C8.78345813,0 7.79292532,0.951952691 7.79292532,2.12624585 C7.79292532,3.300539 10.0053423,5.66998893 10.0053423,5.66998893 Z" id="Oval-2"></path>
                </g>
            </g>
        </g>
    </g>
</svg>