<?xml version="1.0" encoding="UTF-8"?>
<svg width="14px" height="18px" viewBox="0 0 14 18" version="1.1" xmlns="http://www.w3.org/2000/svg" xmlns:xlink="http://www.w3.org/1999/xlink">
    <!-- Generator: sketchtool 46.1 (44463) - http://www.bohemiancoding.com/sketch -->
    <title>EEBD42B9-D4D5-4287-9A95-3F6FCCD9C45C</title>
    <desc>Created with sketchtool.</desc>
    <defs></defs>
    <g id="Page-1" stroke="none" stroke-width="1" fill="none" fill-rule="evenodd">
        <g id="Sidemenu_v2_Mobile" transform="translate(-18.000000, -76.000000)" stroke="#E40327">
            <g id="Рестораны" transform="translate(19.000000, 77.000000)">
                <g id="Иконка">
                    <path d="M5.98156842,13.2469591 C5.98156842,13.2469591 10.5720744,7.2809092 10.5720744,4.6904469 C10.5720744,2.09998461 8.51683488,0 5.98156842,0 C3.44630197,0 1.39106242,2.09998461 1.39106242,4.6904469 C1.39106242,7.2809092 5.98156842,13.2469591 5.98156842,13.2469591 Z" id="Oval-1"></path>
                    <circle id="Oval-2" cx="6.11789254" cy="4.96159628" r="1.77777778"></circle>
                    <path d="M3.08815858,13.3562936 C3.08815858,13.3562936 1.05720749,13.4415744 0.389497485,13.9816865 C-0.278212519,14.5217986 -0.639888364,16 6.00938967,15.9431461 C12.6586677,15.8862922 11.990958,14.5786525 11.545818,14.1522482 C11.100678,13.7258439 8.87497826,13.3278666 8.87497826,13.3278666" id="Path-1" stroke-linecap="round" stroke-linejoin="round"></path>
                </g>
            </g>
        </g>
    </g>
</svg>