<svg width="26" height="23" viewBox="0 0 26 23" xmlns="http://www.w3.org/2000/svg"><title>E81A2B53-CFEC-47F1-905B-2A86CE08E9BF</title><path d="M23.423 8.49c.13-.398.196-.816.196-1.237 0-2.238-1.844-4.059-4.111-4.059-.048 0-.095 0-.144.003a4.152 4.152 0 0 0-3.358-1.719 4.152 4.152 0 0 0-3.359 1.719 4.147 4.147 0 0 0-2.787.949V1.007h-.505c-1.994 0-3.676 1.35-4.156 3.172L3.996 2.993l-.357.353a4.207 4.207 0 0 0-.667 5.144H1.499a.499.499 0 0 0-.499.5c0 4.277 2.32 8.197 6.076 10.304v1.699a1 1 0 0 0 1 1h9.848a1 1 0 0 0 1-1v-1.699C22.679 17.186 25 13.266 25 8.99a.499.499 0 0 0-.499-.499h-1.078zM12.504 4.192c.112 0 .23.006.348.02l.323.035.167-.276a3.127 3.127 0 0 1 2.664-1.495c1.086 0 2.107.573 2.664 1.495l.167.276.323-.036c.119-.013.235-.02.347-.02 1.71 0 3.101 1.374 3.101 3.062 0 .427-.09.85-.263 1.237h-3.528l1.522-1.502a.496.496 0 0 0 0-.706.509.509 0 0 0-.715 0L17.388 8.49h-.877V4.761a.505.505 0 0 0-1.01 0v3.73h-.877l-2.236-2.209a.509.509 0 0 0-.715 0 .496.496 0 0 0 0 .706l1.522 1.502H9.86V5.653a3.116 3.116 0 0 1 2.644-1.461zM8.85 2.044v5.74L6.078 5.049C6.173 3.52 7.343 2.275 8.85 2.044zM4.024 4.431l4.111 4.06h-3.92a3.216 3.216 0 0 1-.191-4.06zm4.063 16.563v-1.496h9.826v1.496H8.087zM18.289 18.5H7.711c-3.372-1.83-5.515-5.24-5.689-9.012h21.956c-.174 3.771-2.317 7.182-5.689 9.012z" fill="#E40327" stroke="#E40327" stroke-width=".2"/></svg>