<svg xmlns="http://www.w3.org/2000/svg" width="24" height="16pt" viewBox="0 0 18 16"><g fill="none" stroke-width="3" stroke="#ed1b23" stroke-miterlimit="10"><path d="M71.316 127.105l-31.205.197c-.627 0-1.022-.395-1.22-.89l-8.676-43.604c-.099-.692.396-1.319 1.089-1.319l46.906-.098c.693 0 1.287.593 1.188 1.318l-6.993 43.506c0 .494-.495.89-1.089.89zM30.611 81.687L18.604 95.695m48.391-14.7l-.594-5.999" transform="matrix(.11842 0 0 .11852 0 .018)"/><path d="M66.401 74.996l-3.496-35.99c-.1-.594.395-1.22.99-1.22l42.716-.1c.693 0 1.287.627 1.188 1.32l-6.499 81.408c0 .593-.494 1.088-1.088 1.088l-27.214-.198" transform="matrix(.11842 0 0 .11852 0 .018)"/><path d="M83.389 110.988l6.4-86.682c.098-.89.527-1.714 1.22-2.209L107.007 9.31" transform="matrix(.11842 0 0 .11852 0 .018)"/></g></svg>