<?xml version="1.0" encoding="UTF-8"?>
<svg width="29px" height="28px" viewBox="0 0 29 28" version="1.1" xmlns="http://www.w3.org/2000/svg" xmlns:xlink="http://www.w3.org/1999/xlink">
    <!-- Generator: sketchtool 46.1 (44463) - http://www.bohemiancoding.com/sketch -->
    <title>3B8A2621-746D-4CE7-9847-88D6BCE2CD8D</title>
    <desc>Created with sketchtool.</desc>
    <defs></defs>
    <g id="Page-1" stroke="none" stroke-width="1" fill="none" fill-rule="evenodd">
        <g id="Sidemenu_v2_Mobile" transform="translate(-195.000000, -555.000000)" fill="#C7C7CD">
            <g id="Соцсети" transform="translate(47.000000, 555.000000)">
                <g id="Instagram_w_circle" transform="translate(148.231301, 0.000000)">
                    <path d="M19.5516845,9.6441385 C19.3080153,9.01187978 18.8087857,8.51213806 18.1771747,8.268219 C17.7465123,8.10845191 17.2916131,8.02400122 16.8323595,8.018558 C16.0685724,7.983671 15.8395913,7.976334 13.9057087,7.976334 C11.9718262,7.976334 11.7428451,7.983671 10.9790579,8.0185435 C10.5198044,8.02398672 10.0649052,8.10843741 9.63424273,8.2682045 C9.00263181,8.51212356 8.50340213,9.01186528 8.25973298,9.644124 C8.10012959,10.0752282 8.01576542,10.5305939 8.01032778,10.9903185 C7.97549101,11.754889 7.96816153,11.984221 7.96816153,13.919971 C7.96816153,15.855721 7.97550549,16.085053 8.01032778,16.8496235 C8.01575508,17.3093491 8.10011957,17.7647166 8.25973298,18.195818 C8.50340213,18.8280767 9.00263181,19.3278184 9.63424273,19.5717375 C10.0649052,19.7315046 10.5198044,19.8159553 10.9790579,19.8213985 C11.7426567,19.8561985 11.9717248,19.863608 13.9057087,19.863608 C15.8396927,19.863608 16.0687607,19.8562565 16.8323595,19.8213985 C17.2916131,19.8159553 17.7465123,19.7315046 18.1771747,19.5717375 C18.8087857,19.3278184 19.3080153,18.8280767 19.5516845,18.195818 C19.7112979,17.7647166 19.7956624,17.3093491 19.8010897,16.8496235 C19.835854,16.0850675 19.8432559,15.8558515 19.8432559,13.919971 C19.8432559,11.9840905 19.8359265,11.754889 19.8010897,10.9903185 C19.7956504,10.5305988 19.7112862,10.0752381 19.5516845,9.6441385 L19.5516845,9.6441385 Z M13.9057087,17.6429475 C11.8516723,17.6429475 10.1865468,15.9761141 10.1865468,13.919971 C10.1865468,11.8638279 11.8516723,10.1969945 13.9057087,10.1969945 C15.9597452,10.1969945 17.6248707,11.8638279 17.6248707,13.919971 C17.6248746,14.9073669 17.2330366,15.8543228 16.5355576,16.5525172 C15.8380786,17.2507115 14.892093,17.6429513 13.9057087,17.6429475 L13.9057087,17.6429475 Z M17.7717935,10.919921 C17.2917981,10.919921 16.9026849,10.5304087 16.9026849,10.049921 C16.9026849,9.56943327 17.2917981,9.179921 17.7717935,9.179921 C18.2517889,9.179921 18.6409021,9.56943327 18.6409021,10.049921 C18.6409021,10.5304087 18.2517889,10.919921 17.7717935,10.919921 L17.7717935,10.919921 Z" id="Shape"></path>
                    <ellipse id="Oval" cx="13.9057087" cy="13.919971" rx="2.41422437" ry="2.4167005"></ellipse>
                    <path d="M13.9057087,-2.89999999e-05 C6.22578187,-2.89999999e-05 -2.8970286e-05,6.23216728 -2.8970286e-05,13.919971 C-2.8970286e-05,21.6077747 6.22578187,27.839971 13.9057087,27.839971 C21.5856356,27.839971 27.8114464,21.6077747 27.8114464,13.919971 C27.8114656,10.2281516 26.3464072,6.68753393 23.7385714,4.07702337 C21.1307355,1.46651281 17.5937456,-4.82283764e-05 13.9057087,-2.89999999e-05 L13.9057087,-2.89999999e-05 Z M21.1046947,16.909146 C21.0926369,17.5105886 20.9788027,18.1056322 20.768031,18.668982 C20.391861,19.6428605 19.6227781,20.4127323 18.6498974,20.789288 C18.0871248,21.0002759 17.4926909,21.1142269 16.8918645,21.126297 C16.1193284,21.161648 15.8726608,21.169971 13.9057087,21.169971 C11.9387566,21.169971 11.6920891,21.161648 10.9195674,21.1263405 C10.318741,21.1142704 9.72430719,21.0003194 9.16153455,20.7893315 C8.18865389,20.4127758 7.41957091,19.642904 7.043401,18.6690255 C6.83262926,18.1056757 6.71879504,17.5106321 6.7067373,16.9091895 C6.67145149,16.135861 6.66313701,15.8889405 6.66313701,13.919971 C6.66313701,11.9510015 6.67145149,11.704081 6.70672281,10.930767 C6.71878056,10.3293244 6.83261478,9.73428083 7.04338651,9.170931 C7.41955303,8.19704701 8.18863649,7.42716949 9.16152007,7.0506105 C9.7242927,6.83962259 10.3187266,6.72567162 10.919553,6.7136015 C11.6920891,6.678294 11.9387566,6.669971 13.9057087,6.669971 C15.8726608,6.669971 16.1193284,6.678294 16.89185,6.7136015 C17.4926764,6.72567162 18.0871103,6.83962259 18.6498829,7.0506105 C19.6227636,7.42716622 20.3918466,8.19703801 20.7680165,9.1709165 C20.9787882,9.73426633 21.0926224,10.3293099 21.1046802,10.9307525 C21.139966,11.704081 21.1482805,11.9510015 21.1482805,13.919971 C21.1482805,15.8889405 21.139966,16.135861 21.1046947,16.909175 L21.1046947,16.909146 Z" id="Shape"></path>
                </g>
            </g>
        </g>
    </g>
</svg>