<svg width="19" height="18" viewBox="0 0 19 18" xmlns="http://www.w3.org/2000/svg"><title>CB53B966-406C-40E2-9EF7-109BE43A1AF4</title><g stroke="#F11B35" fill="none" fill-rule="evenodd"><path d="M17.223 10.951a.072.072 0 0 1 .03-.092c.203-.124.867-.588.598-1.253-.249-.609-.89-.746-1.157-.778a.16.16 0 0 1-.14-.128c-.048-.236-.217-.754-.78-.971-.682-.263-1.248.101-1.48.288a.14.14 0 0 1-.198-.022c-.24-.305-.96-1.05-2.034-.607-.075.032-.16-.011-.168-.092-.041-.397-.247-1.38-1.292-1.623-.074-.019-.132-.075-.137-.15-.026-.382-.199-1.532-1.265-1.746-.2-.041-.338-.226-.358-.429-.073-.677-.204-1.987-.204-1.987a.48.48 0 0 0-.585-.346c-.127.033-.17.211-.292.22-.22.02-.375-.25-.604-.19-.228.059-.232.37-.435.46-.112.05-.233-.084-.362-.05a.483.483 0 0 0-.345.586l.87 1.817a.372.372 0 0 1-.104.46c-.187.144-.366.407-.325.887.041.465.391.735.605.86a.144.144 0 0 1 .04.217c-.177.224-.453.71-.218 1.364.222.615.522.801.694.855"/><path d="M17.58 13.212c.191-.222.798-1.015.235-1.694-.519-.624-1.323-.545-1.65-.48a.198.198 0 0 1-.21-.1c-.147-.258-.538-.805-1.28-.85-.9-.053-1.43.587-1.629.893a.174.174 0 0 1-.242.049c-.395-.27-1.52-.873-2.615.046-.076.066-.19.053-.23-.04-.194-.446-.802-1.532-2.126-1.428a.21.21 0 0 1-.216-.125c-.19-.475-.92-1.954-2.503-1.505-.058.016-1.196-2.7-1.196-2.7a.59.59 0 0 0-.816-.186c-.138.087-.122.31-.262.367-.251.106-.533-.154-.78.002-.247.154-.135.52-.338.703-.113.1-.306-.01-.445.076a.592.592 0 0 0-.185.818l1.917 2.038c.046.05.052.128.008.18-.161.194-.493.696-.228 1.333.22.533.733.719 1.03.785a.177.177 0 0 1 .127.24 1.705 1.705 0 0 0 .255 1.682c.492.64.912.747 1.133.748.09 0 .164.062.168.152.019.373.135 1.246.828 1.604.99.51 1.625.036 1.81-.135.022-.022.057-.007.061.025.032.282.206 1.237 1.122 1.416.815.158 1.303-.401 1.494-.686a.09.09 0 0 1 .158.015c.16.369.647 1.185 1.745.941.863-.194 1.085-.715 1.141-.965.01-.049.073-.065.108-.028.165.18.562.508 1.186.42.643-.09 1.288-.586 1.109-1.476-.01-.046.028-.087.072-.073.252.095.942.252 1.488-.524.395-.563-.08-1.219-.246-1.418a.094.094 0 0 1 .001-.12z"/></g></svg>