<svg width="17" height="17" viewBox="0 0 17 17" xmlns="http://www.w3.org/2000/svg"><title>B8A120DE-A3D6-4F33-A105-869471238B36</title><g stroke="#F11B35" fill="none" fill-rule="evenodd"><path d="M10.442 14.687L8.787 7.843a4.384 4.384 0 0 0-.62-1.421.74.74 0 0 0-.608-.341H3.527a.738.738 0 0 0-.607.34 4.384 4.384 0 0 0-.62 1.422L.644 14.687c-.134.554.212 1.108.693 1.108H9.75c.48 0 .827-.554.692-1.108zM7.251 3.361c-.112.864.068 2.052.585 2.753m-4-2.753c.112.864-.068 2.052-.585 2.753"/><path d="M7.647 10.775a2.105 2.105 0 1 1-4.21 0 2.105 2.105 0 0 1 4.21 0zM3.082.615c-.26 0-.446.3-.374.598l.16.659c.075.312.187.603.328.868.198.371.547.587.915.587H6.98c.364 0 .713-.216.91-.584.142-.266.254-.557.33-.871l.16-.659c.07-.299-.117-.598-.377-.598H3.082z"/><path d="M12 .666v1.765" stroke-linecap="round"/><path d="M9.494 10.775v-3.92c0-.772.625-1.398 1.398-1.398h3.485c.771 0 1.398.626 1.398 1.398v8.267a.673.673 0 0 1-.673.673H9.824m4.305-10.632h-2.99a.623.623 0 0 1-.623-.622V3.097c0-.344.28-.623.623-.623h2.99c.343 0 .623.28.623.623V4.54c0 .343-.28.622-.623.622z"/></g></svg>