<?xml version="1.0" encoding="UTF-8"?>
<svg width="18px" height="12px" viewBox="0 0 18 12" version="1.1" xmlns="http://www.w3.org/2000/svg" xmlns:xlink="http://www.w3.org/1999/xlink">
    <!-- Generator: sketchtool 46.1 (44463) - http://www.bohemiancoding.com/sketch -->
    <title>70A75767-12FA-43DE-824F-183021E1CCC1</title>
    <desc>Created with sketchtool.</desc>
    <defs></defs>
    <g id="Page-1" stroke="none" stroke-width="1" fill="none" fill-rule="evenodd" stroke-linecap="round" stroke-linejoin="round">
        <g id="Sidemenu_v2_Mobile" transform="translate(-18.000000, -141.000000)" stroke="#E40327">
            <g id="Условия-доставки" transform="translate(19.000000, 139.000000)">
                <g id="иконка" transform="translate(0.000000, 2.000000)">
                    <path d="M1.39130435,2.22608696 C1.39130435,2.22608696 1.58034069,1.26697026 2.7826087,0.834782616 C3.98487671,0.402594975 8.38941263,0.590710272 8.38941263,0.590710272 C8.38941263,0.590710272 9.2362934,0.440467697 10.1096392,1.31187468 C10.982985,2.18328167 10.8771249,3.08473727 10.8771249,3.08473727 L10.8771249,9.18465365 L6.24776066,9.18465364" id="Path-1"></path>
                    <path d="M3.06086951,9.18260867 C3.06086951,9.18260867 2.50434783,9.46086957 1.94782609,8.90434783 C1.39130435,8.34782609 1.39130435,7.79130435 1.39130435,7.79130435" id="Path-2"></path>
                    <path d="M0,3.6173913 L2.93761767,3.6173913" id="Path-3"></path>
                    <path d="M0.767485698,5.28695652 L2.88468762,5.28695652" id="Path-4"></path>
                    <path d="M10.9035899,3.08473722 L13.7358421,3.08473722 C13.7358421,3.08473722 14.3708203,3.17760181 14.7410184,3.50541647 C15.1112165,3.83323112 15.2967839,4.46696903 15.2967839,4.46696903 L15.8790144,7.98264557 C15.8790144,7.98264557 15.9702477,8.56868127 15.7202243,8.8841011 C15.4702008,9.19952093 14.9262736,9.18458627 14.9262736,9.18458627 L14.1913043,9.18458649" id="Path-5"></path>
                    <ellipse id="Oval-1" cx="4.5814739" cy="9.59493204" rx="1.51304348" ry="1.51055901"></ellipse>
                    <ellipse id="Oval-1" cx="12.703213" cy="9.59493204" rx="1.51304348" ry="1.51055901"></ellipse>
                </g>
            </g>
        </g>
    </g>
</svg>