<?xml version="1.0" encoding="UTF-8"?>
<svg width="29px" height="28px" viewBox="0 0 29 28" version="1.1" xmlns="http://www.w3.org/2000/svg" xmlns:xlink="http://www.w3.org/1999/xlink">
    <!-- Generator: sketchtool 46.1 (44463) - http://www.bohemiancoding.com/sketch -->
    <title>B27FCA97-6299-4BE7-8C51-C134FC81E9A5</title>
    <desc>Created with sketchtool.</desc>
    <defs></defs>
    <g id="Page-1" stroke="none" stroke-width="1" fill="none" fill-rule="evenodd">
        <g id="Sidemenu_v2_Mobile" transform="translate(-146.000000, -555.000000)">
            <g id="Соцсети" transform="translate(47.000000, 555.000000)">
                <g id="одноклассники" transform="translate(99.464652, 0.000000)">
                    <path d="M13.9057377,-2.98927549e-15 C6.22581084,-7.35522754e-16 4.51761806e-15,6.23219628 3.55271368e-15,13.92 C2.58780929e-15,21.6078037 6.22581084,27.84 13.9057377,27.84 C21.5856646,27.84 27.8114754,21.6078037 27.8114754,13.92 C27.8114946,10.2281806 26.3464362,6.68756293 23.7386003,4.07705237 C21.1307645,1.46654181 17.5937745,-1.92283764e-05 13.9057377,-3.55271368e-15 L13.9057377,-2.98927549e-15 Z" id="Shape" fill="#C7C7CD"></path>
                    <path d="M14.062778,13.8060098 C15.5405716,13.8060098 16.7359555,12.6167724 16.7359555,11.1530049 C16.7359555,9.68923739 15.5405716,8.5 14.062778,8.5 C12.5849844,8.5 11.3896004,9.68923739 11.3896004,11.1530049 C11.3896004,12.6167724 12.5849844,13.8060098 14.062778,13.8060098 Z" id="Oval-1" stroke="#FFFFFF" stroke-width="2.5"></path>
                    <path d="M10.8638576,15.95 C10.8638576,15.95 12.4524605,16.8683541 14.0639397,16.8683541 C15.6754189,16.8683541 17.3021491,15.95 17.3021491,15.95" id="Line" stroke="#FFFFFF" stroke-width="2.5" stroke-linecap="round" stroke-linejoin="round"></path>
                    <polyline id="Line" stroke="#FFFFFF" stroke-width="2.5" stroke-linecap="round" points="10.8638576 20.3387331 13.8023945 17.4 16.7828801 20.3387331"></polyline>
                </g>
            </g>
        </g>
    </g>
</svg>