<?xml version="1.0" encoding="UTF-8"?>
<svg width="16px" height="12px" viewBox="0 0 16 12" version="1.1" xmlns="http://www.w3.org/2000/svg" xmlns:xlink="http://www.w3.org/1999/xlink">
    <!-- Generator: sketchtool 46.2 (44496) - http://www.bohemiancoding.com/sketch -->
    <title>EFFCB8CB-F34A-4F22-B935-288B386C8A17</title>
    <desc>Created with sketchtool.</desc>
    <defs></defs>
    <g id="Page-1" stroke="none" stroke-width="1" fill="none" fill-rule="evenodd">
        <g id="Sidemenu_v2_Mobile" transform="translate(-185.000000, -251.000000)" fill-rule="nonzero" fill="#EB1F40">
            <g id="vacancy" transform="translate(185.000000, 251.000000)">
                <path d="M5,6.66665625 C5.91928125,6.66665625 6.66665625,5.9189375 6.66665625,5 C6.66665625,4.0810625 5.91928125,3.33334375 5,3.33334375 C4.08071875,3.33334375 3.33334375,4.0810625 3.33334375,5 C3.33334375,5.9189375 4.08071875,6.66665625 5,6.66665625 Z M5,4 C5.5514375,4 6,4.4485625 6,5 C6,5.5514375 5.5514375,6 5,6 C4.4485625,6 4,5.5514375 4,5 C4,4.4485625 4.4485625,4 5,4 Z" id="Shape"></path>
                <path d="M7.2799375,7.6878125 C6.74740625,7.37403125 5.91928125,7 5,7 C4.08071875,7 3.25259375,7.37403125 2.7200625,7.6878125 C2.27603125,7.949875 2,8.45865625 2,9.015625 L2,9.22915625 C2,9.6543125 2.3203125,10 2.7141875,10 L7.2858125,10 C7.6796875,10 8,9.6543125 8,9.22915625 L8,9.015625 C8,8.45865625 7.72396875,7.949875 7.2799375,7.6878125 Z M7.33334375,9.22915625 C7.33334375,9.2985 7.293625,9.3333125 7.2858125,9.3333125 L2.7141875,9.3333125 C2.706375,9.3333125 2.66665625,9.29846875 2.66665625,9.22915625 L2.66665625,9.015625 C2.66665625,8.69825 2.8203125,8.40265625 3.05859375,8.26203125 C3.51953125,7.99053125 4.23046875,7.66665625 5,7.66665625 C5.76953125,7.66665625 6.48046875,7.9905625 6.94140625,8.26203125 C7.1796875,8.40265625 7.33334375,8.69821875 7.33334375,9.015625 L7.33334375,9.22915625 Z" id="Shape"></path>
                <path d="M13.6666563,8 L9.66665625,8 C9.48240625,8 9.3333125,8.14909375 9.3333125,8.33334375 C9.3333125,8.51759375 9.48240625,8.6666875 9.66665625,8.6666875 L13.6666563,8.6666875 C13.8509063,8.6666875 14,8.51759375 14,8.33334375 C14,8.14909375 13.8509062,8 13.6666563,8 Z" id="Shape"></path>
                <path d="M13.6666562,6 L8.33334375,6 C8.14909375,6 8,6.14909375 8,6.33334375 C8,6.51759375 8.14909375,6.6666875 8.33334375,6.6666875 L13.6666875,6.6666875 C13.8509375,6.6666875 14.0000312,6.51759375 14.0000312,6.33334375 C14,6.14909375 13.8509062,6 13.6666562,6 Z" id="Shape"></path>
                <path d="M14.6666563,1.33334375 L9.33334375,1.33334375 C9.33334375,0.59796875 8.73503125,0 8,0 C7.26496875,0 6.66665625,0.59796875 6.66665625,1.33334375 L1.33334375,1.33334375 C0.5983125,1.33334375 0,1.9313125 0,2.66665625 L0,10.6666562 C0,11.4020313 0.5983125,12 1.33334375,12 L14.6666875,12 C15.4016875,12 16,11.4020313 16,10.6666563 L16,2.66665625 C16,1.9313125 15.4016875,1.33334375 14.6666563,1.33334375 Z M7.33334375,1.33334375 C7.33334375,0.96584375 7.6321875,0.6666875 8,0.6666875 C8.3678125,0.6666875 8.66665625,0.96584375 8.66665625,1.33334375 L8.66665625,2.6666875 L7.3333125,2.6666875 L7.3333125,1.33334375 L7.33334375,1.33334375 Z M15.3333438,10.6666563 C15.3333438,11.0341563 15.0345,11.3333125 14.6666875,11.3333125 L1.33334375,11.3333125 C0.9655,11.3333125 0.6666875,11.0341563 0.6666875,10.6666563 L0.6666875,2.66665625 C0.6666875,2.29915625 0.96553125,2 1.33334375,2 L6.6666875,2 L6.6666875,3 C6.6666875,3.18425 6.81578125,3.33334375 7.00003125,3.33334375 L9.00003125,3.33334375 C9.18428125,3.33334375 9.333375,3.18425 9.333375,3 L9.333375,2 L14.6667188,2 C15.0345625,2 15.333375,2.29915625 15.333375,2.66665625 L15.333375,10.6666563 L15.3333438,10.6666563 Z" id="Shape"></path>
            </g>
        </g>
    </g>
</svg>