<?xml version="1.0" encoding="UTF-8"?>
<svg width="14px" height="16px" viewBox="0 0 14 16" version="1.1" xmlns="http://www.w3.org/2000/svg" xmlns:xlink="http://www.w3.org/1999/xlink">
    <!-- Generator: sketchtool 46.1 (44463) - http://www.bohemiancoding.com/sketch -->
    <title>FE8323E7-1BCF-4269-B055-7799E75F8F2F</title>
    <desc>Created with sketchtool.</desc>
    <defs></defs>
    <g id="Page-1" stroke="none" stroke-width="1" fill="none" fill-rule="evenodd">
        <g id="Sidemenu_v2_Mobile" transform="translate(-20.000000, -264.000000)" stroke="#EB1F40" stroke-width="0.2" fill="#EB1F40" fill-rule="nonzero">
            <g id="Обратная-связь-Copy" transform="translate(21.000000, 264.000000)">
                <g id="man-running" transform="translate(0.000000, 1.000000)">
                    <path d="M6.57269511,3.21365685 C7.43734692,3.21365685 8.14075918,2.49280301 8.14075918,1.60680702 C8.14075918,0.720811024 7.43734692,0 6.57269511,0 C5.70808508,0 5.00467283,0.720811024 5.00467283,1.60680702 C5.00467283,2.49280301 5.70812686,3.21365685 6.57269511,3.21365685 Z M6.57269511,0.770691917 C7.02265333,0.770691917 7.38867004,1.1458048 7.38867004,1.60680702 C7.38867004,2.06789486 7.02261154,2.44296493 6.57269511,2.44296493 C6.12277867,2.44296493 5.75676196,2.06785205 5.75676196,1.60680702 C5.75680374,1.14576198 6.12282046,0.770691917 6.57269511,0.770691917 Z M6.91201266,9.63326362 L5.26802937,13.1591363 L5.68756976,13.1591363 C5.89527171,13.1591363 6.06361433,13.3316429 6.06361433,13.5444823 C6.06361433,13.7573217 5.89527171,13.9298282 5.68756976,13.9298282 L4.67362826,13.9298282 C4.67283439,13.9298282 4.6720823,13.9299995 4.67128842,13.9299995 C4.65114915,13.9299995 4.63088452,13.9277303 4.61070347,13.9243478 C4.60493745,13.9234058 4.59912965,13.9226351 4.59348898,13.9213935 C4.58780653,13.9201946 4.58216586,13.9184819 4.57652519,13.9169406 C4.56904608,13.9149282 4.56156698,13.9129158 4.554255,13.9105181 C4.54936642,13.9088483 4.54451962,13.9068788 4.53963104,13.9049948 C4.53173411,13.9019977 4.52392074,13.8987437 4.5162745,13.8951899 C4.51401823,13.8941623 4.5116784,13.8933916 4.50942213,13.8923212 C4.5065809,13.8909511 4.50399037,13.8892385 4.50123271,13.8877827 C4.4954667,13.8847856 4.48978425,13.8816172 4.48418536,13.8783203 C4.47858647,13.8750235 4.47311294,13.871641 4.46776475,13.8680873 C4.46321043,13.8650901 4.45878146,13.8619645 4.45439427,13.8587533 C4.44841934,13.8543861 4.44256976,13.849976 4.43688731,13.8453518 C4.43341934,13.842526 4.43003494,13.8395288 4.42665054,13.8365745 C4.42063383,13.8312653 4.41478425,13.8259133 4.40914358,13.8202615 C4.40621879,13.81735 4.40341934,13.8142673 4.40057812,13.8112701 C4.3950628,13.8054043 4.38971461,13.7994957 4.38461711,13.7932873 C4.38173411,13.7897764 4.37901823,13.7861798 4.37626057,13.7826261 C4.37170625,13.7766746 4.3672355,13.7707232 4.36305723,13.7645148 C4.36000709,13.7600619 4.35720764,13.7554378 4.35436642,13.7508993 C4.35094023,13.7452903 4.34751405,13.7397242 4.34438035,13.7339869 C4.34128842,13.7284208 4.3384472,13.7226834 4.33564776,13.716946 C4.33318257,13.7118937 4.33071739,13.7068414 4.32846113,13.7016606 C4.32566168,13.695281 4.32315472,13.6886873 4.32068954,13.6821364 C4.3188511,13.6771697 4.31701266,13.6722459 4.31534135,13.6671936 C4.31316865,13.6605571 4.31124664,13.6537921 4.3094082,13.6470271 C4.30794581,13.6415467 4.30652519,13.6360662 4.30527171,13.6305429 C4.30389288,13.6242917 4.30272296,13.6180405 4.30163661,13.6117466 C4.30050848,13.6051957 4.29950569,13.598602 4.29867004,13.5919655 C4.29800152,13.5865278 4.29750012,13.5810902 4.2970823,13.5756097 C4.29645556,13.5678171 4.29607951,13.5601102 4.29591238,13.5522748 C4.2958706,13.549663 4.29553634,13.5471369 4.29553634,13.5445251 C4.29553634,13.542213 4.29582881,13.5400294 4.2958706,13.5377173 C4.29599595,13.5297535 4.29641377,13.5218325 4.29704051,13.5138259 C4.29745834,13.5086451 4.29787617,13.5034644 4.29846113,13.4983692 C4.29929678,13.4913902 4.30034135,13.4844968 4.30155305,13.4775605 C4.30259762,13.4713522 4.30372575,13.4652295 4.30510458,13.4591067 C4.30635806,13.4535406 4.30777867,13.4480173 4.30928285,13.4424941 C4.31124664,13.4351297 4.31333578,13.4278937 4.31571739,13.4207434 C4.31717979,13.4163333 4.31876753,13.4120517 4.32035528,13.4076845 C4.32332185,13.399635 4.32653912,13.3917568 4.33000709,13.3840071 C4.33084274,13.382166 4.3314277,13.3802821 4.33226335,13.378441 L6.07418536,9.64242629 L4.83407394,9.00647701 C4.64834971,8.91121093 4.57314079,8.67970364 4.66606558,8.48942837 C4.75903216,8.29911028 4.98495138,8.22204109 5.17063383,8.31726436 L6.74095416,9.12255178 C6.92433856,9.21657619 7.00038313,9.44371623 6.91201266,9.63326362 Z M11.7812466,3.63321296 C11.6631686,3.71113848 11.3350907,3.9329693 10.9877926,4.16781626 C10.7041296,4.3595901 10.398489,4.56630679 10.1549792,4.72995038 C9.70899037,5.02974953 9.40339149,5.15961112 8.96743049,5.15961112 C8.72011851,5.15961112 8.43085667,5.11777968 8.050216,5.04156681 C8.04942213,5.04139555 8.04867004,5.04113865 8.04783439,5.04096738 C8.04716586,5.04079612 8.04649734,5.0407533 8.0458706,5.04062485 L3.75695695,4.12765464 C2.82770904,3.941661 2.69300152,4.00387296 2.21124664,4.32777765 C1.96890681,4.49069335 1.6648121,4.69625402 1.38236085,4.88725716 C1.01701266,5.13430674 0.701553048,5.34761713 0.579672825,5.42802599 C0.516706251,5.46955772 0.446177004,5.48942445 0.376441627,5.48942445 C0.252848313,5.48942445 0.131803744,5.42704122 0.0598956665,5.31263628 C-0.0524998767,5.13370731 -0.00210990454,4.89526379 0.172500123,4.78004535 C0.290828814,4.70199139 0.619826029,4.47951832 0.968126864,4.24398631 C1.25116308,4.05259782 1.55588452,3.84656618 1.79872575,3.68335075 C2.49770904,3.21344277 2.85177589,3.16103572 3.90348898,3.37173432 C3.90495138,3.37203404 3.90637199,3.37233375 3.90783439,3.37263346 L8.19482603,4.28521833 C9.12574525,4.47164014 9.26032742,4.40951381 9.74245834,4.08548067 C9.98542491,3.92217962 10.2904806,3.71589108 10.5735168,3.52445977 C10.9377787,3.27818089 11.2523608,3.0654271 11.3739904,2.98518951 C11.5485168,2.86992825 11.7812884,2.92152179 11.8937258,3.10049358 C12.0062466,3.27950819 11.9558567,3.51799452 11.7812466,3.63321296 Z M2.18529957,13.5444823 C2.18529957,13.7573217 2.01695695,13.9298282 1.809255,13.9298282 L0.794060012,13.9298282 C0.793642185,13.9298282 0.793224357,13.9299139 0.79280653,13.9299139 C0.790216001,13.9299139 0.787625472,13.9294429 0.785034942,13.9294001 C0.773377561,13.9291432 0.761803744,13.9285009 0.750397059,13.9271308 C0.745299566,13.9265314 0.740243856,13.9255894 0.735188146,13.9247331 C0.72545277,13.9231917 0.715800959,13.9213506 0.706358062,13.9190386 C0.701636614,13.9179253 0.696956948,13.9166409 0.692235499,13.9153135 C0.680870597,13.9121023 0.669714608,13.9082917 0.658809316,13.9039673 C0.656177004,13.9029825 0.653502909,13.9021262 0.650870597,13.9010129 C0.636748034,13.8951043 0.623085082,13.8882965 0.609881739,13.880718 C0.609254998,13.8803755 0.608628257,13.8801186 0.608001516,13.8798189 C0.60499316,13.8780634 0.602277282,13.8760083 0.599310708,13.8741672 C0.592458341,13.8698855 0.585605973,13.8656467 0.579004302,13.860937 C0.57424107,13.8575545 0.569728536,13.8539151 0.565132435,13.8503613 C0.56016029,13.8464223 0.555188146,13.8426116 0.550383132,13.8385013 C0.54516029,13.8339627 0.540229928,13.8291673 0.535299566,13.8244147 C0.531497338,13.8207753 0.527695109,13.817136 0.524060012,13.8133253 C0.519046084,13.8080589 0.514366419,13.8026213 0.509686753,13.797098 C0.506385917,13.7932017 0.503043299,13.7893054 0.499867811,13.7853235 C0.495605973,13.779843 0.491594831,13.7741913 0.487625472,13.7684967 C0.484408201,13.7639154 0.481232714,13.7593341 0.478224357,13.7545815 C0.474881739,13.7493151 0.471789817,13.743963 0.468697895,13.7385254 C0.465522407,13.7329593 0.462388703,13.7273504 0.459463912,13.721613 C0.456998731,13.7167747 0.454784246,13.7118081 0.452527978,13.7068842 C0.449561405,13.7003761 0.446678396,13.6938253 0.444046084,13.6871031 C0.442249427,13.6825218 0.440703466,13.6778548 0.439073939,13.6732307 C0.436608758,13.666166 0.434227143,13.6590585 0.432179789,13.6517797 C0.430800959,13.6468559 0.429631043,13.6418892 0.428461126,13.6368797 C0.426789817,13.6299435 0.425118508,13.6230072 0.423823243,13.6159426 C0.422695109,13.609777 0.421901238,13.6036115 0.421065583,13.5974031 C0.420271711,13.5914089 0.419352491,13.5855002 0.418809316,13.5794203 C0.418099009,13.5713281 0.417848313,13.563193 0.417597616,13.5550579 C0.417514051,13.5514613 0.417054441,13.5479932 0.417054441,13.5443967 C0.417054441,13.5434975 0.417179789,13.5427268 0.417179789,13.5418277 C0.417221572,13.5325794 0.417848313,13.5232883 0.418558619,13.5140828 C0.418809316,13.510529 0.418892881,13.5068896 0.419268926,13.5033359 C0.420146363,13.4949011 0.421608758,13.4864235 0.423029371,13.4779887 C0.423739678,13.4737071 0.42424107,13.4693826 0.425118508,13.4651438 C0.426413772,13.4587642 0.428252212,13.4524274 0.429881739,13.4460906 C0.431469483,13.4399251 0.432848313,13.4337167 0.434728536,13.4276796 C0.436065583,13.423398 0.437778675,13.419202 0.439282853,13.4149204 C0.442040513,13.4069994 0.444756391,13.3991212 0.447973661,13.3914571 C0.449436056,13.3880318 0.451190931,13.384735 0.452736892,13.3813525 C0.456497338,13.373089 0.460341349,13.3648683 0.46464497,13.3569901 C0.465062797,13.3561766 0.465355277,13.3554059 0.465814887,13.3545924 L4.86729121,5.38366839 C4.96957533,5.19848825 5.19904608,5.13323633 5.37975639,5.23809325 C5.56050848,5.34290735 5.62414358,5.5780112 5.52185945,5.76327697 L1.43797366,13.1590507 L1.80921322,13.1590507 C2.01695695,13.1591363 2.18529957,13.3316429 2.18529957,13.5444823 Z" id="Shape"></path>
                </g>
            </g>
        </g>
    </g>
</svg>