<svg width="16" height="16" viewBox="0 0 16 16" xmlns="http://www.w3.org/2000/svg"><title>0B3A88AC-CE24-4E1F-A494-728C8D8ACE29</title><path d="M6.212.208A7.967 7.967 0 0 0 0 8.014c0 4.238 3.303 7.71 7.467 7.986h1.066C12.697 15.723 16 12.252 16 8.014 16 3.009 11.346-.968 6.212.208zM8 14.958c-3.823 0-6.933-3.115-6.933-6.944 0-3.257 2.213-6.038 5.341-6.756a6.647 6.647 0 0 1 5.736 1.892 5.248 5.248 0 0 1 1.544 3.734 5.25 5.25 0 0 1-1.544 3.734 4.113 4.113 0 0 1-5.814 0 3.184 3.184 0 0 1-.93-2.253c0-.815.309-1.631.93-2.253.921-.924 2.528-.924 3.45 0 .347.35.539.813.539 1.306 0 .494-.191.959-.54 1.307a1.37 1.37 0 0 1-1.936 0 .987.987 0 0 1-.289-.7c0-.264.103-.513.29-.7a.537.537 0 0 0 0-.756.533.533 0 0 0-.755 0 2.05 2.05 0 0 0-.602 1.455c0 .55.214 1.068.602 1.455.95.952 2.494.953 3.444 0a2.9 2.9 0 0 0 .853-2.062c0-.78-.302-1.511-.853-2.062-1.323-1.327-3.634-1.327-4.958 0a4.244 4.244 0 0 0-1.242 3.009 4.25 4.25 0 0 0 1.242 3.009 5.177 5.177 0 0 0 7.323 0 6.309 6.309 0 0 0 1.835-5.019c.13.532.2 1.088.2 1.66 0 3.829-3.11 6.944-6.933 6.944z" fill="#ED1B34"/></svg>