<?xml version="1.0" encoding="UTF-8"?>
<svg width="18px" height="13px" viewBox="0 0 18 13" version="1.1" xmlns="http://www.w3.org/2000/svg" xmlns:xlink="http://www.w3.org/1999/xlink">
    <!-- Generator: sketchtool 46.1 (44463) - http://www.bohemiancoding.com/sketch -->
    <title>05167595-E3B0-478C-B464-AEF3E0D3A6AC</title>
    <desc>Created with sketchtool.</desc>
    <defs></defs>
    <g id="Page-1" stroke="none" stroke-width="1" fill="none" fill-rule="evenodd">
        <g id="Sidemenu_v2_Mobile" transform="translate(-18.000000, -234.000000)">
            <g id="Обратная-связь" transform="translate(19.000000, 233.000000)">
                <g id="Иконка" transform="translate(0.000000, 2.000000)">
                    <path d="M15.962977,2.05282898 C15.9409239,1.00723419 15.0552074,0.0977564892 13.9829898,0.0361131554 L8.33039714,0.0318831258 C7.25905433,0.102425909 6.36645996,1.00739876 6.34729137,2.05318483 L6.35142521,5.10295787 C6.37303842,6.14872589 7.25981951,7.04576144 8.33196933,7.09320932 L11.2137255,7.14932751 L13.3731601,8.88428255 L13.2684075,7.07519885 L13.979802,7.05410589 C15.0530262,7.02228461 15.9456576,6.14862786 15.9648393,5.1030602 L15.962977,2.05282898 Z" id="Rectangle-1" stroke="#ED1B34" stroke-linecap="round" stroke-linejoin="round"></path>
                    <rect id="Rectangle-3" fill="#FFFFFF" x="3.63031356" y="2.67643176" width="5.87910762" height="6.49364093"></rect>
                    <path d="M8.32648595,5.53320325 C8.30745471,4.63088192 7.54310428,3.84602612 6.61780808,3.79282952 L1.73976647,3.78917911 C0.815225271,3.85005571 0.0449393616,4.63102394 0.028397365,5.53351033 L0.0319647601,8.16538579 C0.050616399,9.0678566 0.815885605,9.84197514 1.74112324,9.88292144 L4.22800449,9.93134999 L6.09154085,11.4285714 L6.00114203,9.86737887 L6.61505711,9.84917618 C7.54122192,9.82171524 8.31153982,9.067772 8.32809306,8.16547409 L8.32648595,5.53320325 Z" id="Rectangle-1" stroke="#ED1B34" stroke-linecap="round" stroke-linejoin="round" transform="translate(4.178245, 7.608875) scale(-1, 1) translate(-4.178245, -7.608875) "></path>
                </g>
            </g>
        </g>
    </g>
</svg>