<svg width="200" height="200" viewBox="0 0 200 200" xmlns="http://www.w3.org/2000/svg"><title>1EC1DA20-B363-45AE-BA84-078FC49A7E5C</title><g fill="none"><path d="M189.567 89.084v101.015a9.504 9.504 0 0 1-9.507 9.506H19.558c-5.248 0-9.503-4.254-9.503-9.506V89.084h179.512z" fill="#FF7058"/><path fill="#F06B54" d="M10.055 89.088h179.524v13.948H10.055z"/><path d="M199.618 89.08V53.562a9.504 9.504 0 0 0-9.506-9.507H9.51c-5.252 0-9.502 4.259-9.502 9.507V89.08h199.61z" fill="#FF7058"/><g fill="#FFD15C"><path d="M152.514 104.512l9.311-8.541c-.054.025-5.11 2.358-10.633-.22-4.945-2.313-11.798-9.25-16.285-29.285-3.073-12.468-14.647-19.886-27.093-24.31l3.722 19.81c3.73 2.292 6.392 5.032 7.194 8.28 4.766 21.263 13.312 34.882 25.417 40.563 12.576 5.876 23.692.736 25.201-.025l.08-.038-16.914-6.234z"/><path d="M85.824 41.56H113.8v158.066H85.824z"/><path d="M98.4 58.66c-15.009 9.27-39.736 29.03-42.193 42.584L51.02 89.986 39.847 98.3c4.537-25.258 45.191-50.946 49.811-53.782L98.4 58.66zm1.413-17.49s-38.042 8.832-48.03 1.446c-9.615-7.11-9.615-34.607 0-41.718 9.988-7.386 48.03 33.222 48.03 33.222v7.05z"/></g><path d="M51.786 28.282a7.897 7.897 0 0 0-.82.69c-3.659 3.473-3.659 9.482 0 12.954.263.25.537.479.82.686 9.98 7.386 48.027-1.447 48.027-1.447s-38.047-20.26-48.027-12.883" fill="#EBC054"/><path d="M99.813 41.17s38.038 8.832 48.027 1.446c9.615-7.11 9.615-34.607 0-41.718-9.989-7.386-48.027 33.222-48.027 33.222v7.05z" fill="#FFD15C"/><path d="M147.836 28.282c.283.208.557.437.819.69 3.66 3.473 3.66 9.482 0 12.954a8.42 8.42 0 0 1-.82.686c-9.975 7.386-48.026-1.447-48.026-1.447s38.046-20.26 48.027-12.883" fill="#EBC054"/><path d="M90.98 24.826l-1.097 18.119c-.025.528.416.973.968.973h17.92c.553 0 .99-.445.965-.973l-1.094-18.119c-.025-.499-.453-.89-.973-.89H91.954c-.52 0-.949.391-.973.89" fill="#EBC054"/></g></svg>